<svg xmlns="http://www.w3.org/2000/svg" viewBox="0 0 48 48"><g data-name="Processing information data"><path d="m42.42 37.77 1.72 1.72-7 .77c.46-4.2.28-2.6.77-7l1.34 1.34a18.62 18.62 0 0 0-28.03-24.14L11.61 7l-3.46.38a23 23 0 0 1 34.27 30.39z" style="fill:#b5e08c"/><path d="M40.63 39.88c-7.37 8.59-23.06 10.22-32.89.38a23 23 0 0 1-1.47-30.9L4.64 7.74l3.5-.39L11.61 7l-.78 7-1.45-1.52a18.62 18.62 0 0 0 1.45 24.69c7.87 7.83 20.57 6.77 26.72-.41l-.38 3.5z" style="fill:#9dcc6b"/><path d="M33 33a2 2 0 0 1-2 2H17a2 2 0 0 1-2-2V15a2 2 0 0 1 2-2c10.05 0 9.46-.07 10 .18s.18 0 5.41 5.23c.82.82.59.59.59 14.59z" style="fill:#dad7e5"/><path d="M33 19.83C33 33.7 32.9 33 33 33a16 16 0 0 1-16-16v-4c10.05 0 9.46-.07 10 .18s.18 0 5.41 5.23a2 2 0 0 1 .59 1.42z" style="fill:#edebf2"/><path d="M32.82 19H27v-5.82c.45.21.18 0 5.41 5.23a2 2 0 0 1 .41.59z" style="fill:#c6c3d8"/><path d="M43.73 37.66A24.1 24.1 0 0 0 41 7a23.83 23.83 0 0 0-33.28-.61c-3.2.35-3.75.22-4 1s.18 1 1.23 2C-7.24 25.28 4.28 48 24 48a23.86 23.86 0 0 0 17.1-7.16c3.15-.35 3.7-.22 4-1s-.21-1.01-1.37-2.18zm-6.12-5.31c-.78.27-.66.79-1 4A17.62 17.62 0 0 1 9.49 14c.7.7 1 1.12 1.68.88s.65-.77 1-3.91a17.6 17.6 0 0 1 26.94 22.08c-.52-.52-.84-.93-1.5-.7zm.1 8.86A22 22 0 0 1 7 10a1 1 0 0 0 0-1.34c-.21-.22-.72-.11 3.51-.57l-.41 3.66a1 1 0 0 0-1.48.11C-1.6 24.76 7.74 43.62 24 43.62a19.5 19.5 0 0 0 12.26-4.3l-.09.83a1 1 0 0 0 .64 1 1.69 1.69 0 0 0 .9.06zm.59-2.08.41-3.68a1 1 0 0 0 1.39-.24 19.62 19.62 0 0 0-27.61-27.1l.11-1A1 1 0 0 0 11.36 6a21.85 21.85 0 0 1 28.2 2.46 22.1 22.1 0 0 1 2.06 28.73 1 1 0 0 0 .09 1.31c.36.33.81.17-3.41.63z"/><path d="M33.72 18.57c-.32-.68-.1-.37-5.43-5.69C27.16 11.75 26.58 12 17 12a3 3 0 0 0-3 3v18a3 3 0 0 0 3 3h14a3 3 0 0 0 3-3c0-14.19.12-13.59-.28-14.43zM30.59 18H28v-2.59zM31 34H17a1 1 0 0 1-1-1V15a1 1 0 0 1 1-1h9v5a1 1 0 0 0 1 1h5v13a1 1 0 0 1-1 1z"/><path d="M25 21h-6a1 1 0 0 0 0 2h6a1 1 0 0 0 0-2zM25 25h-6a1 1 0 0 0 0 2h6a1 1 0 0 0 0-2zM25 29h-6a1 1 0 0 0 0 2h6a1 1 0 0 0 0-2z"/></g></svg>